<svg width="469" height="636" viewBox="0 0 469 636" fill="none" xmlns="http://www.w3.org/2000/svg">
<rect x="36" y="151" width="115" height="370" fill="black" fill-opacity="0.4"/>
<rect x="94" y="636" width="115" height="324" transform="rotate(-90 94 636)" fill="black" fill-opacity="0.4"/>
<rect x="94" y="151" width="115" height="324" transform="rotate(-90 94 151)" fill="black" fill-opacity="0.4"/>
<rect x="346" y="521" width="115" height="123" transform="rotate(-90 346 521)" fill="black" fill-opacity="0.4"/>
<rect x="252" y="406" width="115" height="217" transform="rotate(-90 252 406)" fill="black" fill-opacity="0.4"/>
<rect y="115" width="115" height="370" fill="black"/>
<rect x="58" y="600" width="115" height="324" transform="rotate(-90 58 600)" fill="black"/>
<rect x="58" y="115" width="115" height="324" transform="rotate(-90 58 115)" fill="black"/>
<rect x="310" y="485" width="115" height="123" transform="rotate(-90 310 485)" fill="black"/>
<rect x="216" y="370" width="115" height="217" transform="rotate(-90 216 370)" fill="black"/>
</svg>
