<svg width="1471" height="636" viewBox="0 0 1471 636" fill="none" xmlns="http://www.w3.org/2000/svg">
<rect x="36" y="151" width="115" height="370" fill="black" fill-opacity="0.4"/>
<rect x="94" y="636" width="115" height="324" transform="rotate(-90 94 636)" fill="black" fill-opacity="0.4"/>
<rect x="94" y="151" width="115" height="324" transform="rotate(-90 94 151)" fill="black" fill-opacity="0.4"/>
<rect x="698" y="151" width="115" height="252" transform="rotate(-90 698 151)" fill="black" fill-opacity="0.4"/>
<rect x="583" y="396" width="115" height="331" transform="rotate(-90 583 396)" fill="black" fill-opacity="0.4"/>
<rect x="583" y="636" width="115" height="252" transform="rotate(-90 583 636)" fill="black" fill-opacity="0.4"/>
<rect x="1166" y="636" width="115" height="247" transform="rotate(-90 1166 636)" fill="black" fill-opacity="0.4"/>
<rect x="1166" y="151" width="115" height="247" transform="rotate(-90 1166 151)" fill="black" fill-opacity="0.4"/>
<rect x="698" y="360" width="115" height="324" transform="rotate(180 698 360)" fill="black" fill-opacity="0.4"/>
<rect x="1166" y="636" width="115" height="600" transform="rotate(180 1166 636)" fill="black" fill-opacity="0.4"/>
<rect x="1471" y="521" width="115" height="369" transform="rotate(180 1471 521)" fill="black" fill-opacity="0.4"/>
<rect x="950" y="636" width="115" height="355" transform="rotate(180 950 636)" fill="black" fill-opacity="0.4"/>
<rect x="346" y="521" width="115" height="123" transform="rotate(-90 346 521)" fill="black" fill-opacity="0.4"/>
<rect x="252" y="406" width="115" height="217" transform="rotate(-90 252 406)" fill="black" fill-opacity="0.4"/>
<rect y="115" width="115" height="370" fill="black"/>
<rect x="58" y="600" width="115" height="324" transform="rotate(-90 58 600)" fill="black"/>
<rect x="58" y="115" width="115" height="324" transform="rotate(-90 58 115)" fill="black"/>
<rect x="624" y="115" width="115" height="290" transform="rotate(-90 624 115)" fill="black"/>
<rect x="547" y="360" width="115" height="367" transform="rotate(-90 547 360)" fill="black"/>
<rect x="547" y="600" width="115" height="290" transform="rotate(-90 547 600)" fill="black"/>
<rect x="1053" y="600" width="115" height="324" transform="rotate(-90 1053 600)" fill="black"/>
<rect x="1053" y="116" width="115" height="324" transform="rotate(-90 1053 116)" fill="black"/>
<rect x="662" y="331" width="115" height="331" transform="rotate(180 662 331)" fill="black"/>
<rect x="1130" y="600" width="115" height="600" transform="rotate(180 1130 600)" fill="black"/>
<rect x="1435" y="485" width="115" height="369" transform="rotate(180 1435 485)" fill="black"/>
<rect x="914" y="600" width="115" height="355" transform="rotate(180 914 600)" fill="black"/>
<rect x="310" y="485" width="115" height="123" transform="rotate(-90 310 485)" fill="black"/>
<rect x="216" y="370" width="115" height="217" transform="rotate(-90 216 370)" fill="black"/>
</svg>
